<svg width="14" height="14" viewBox="0 0 14 14" fill="none" xmlns="http://www.w3.org/2000/svg">
<path d="M11.454 6.4699C10.5754 6.4699 9.8631 5.75763 9.8631 4.879C9.8631 4.00036 10.5754 3.28809 11.454 3.28809C12.3326 3.28809 13.0449 4.00036 13.0449 4.879C13.0449 5.75763 12.3326 6.4699 11.454 6.4699Z" fill="#30455A"/>
<path d="M7.21159 6.4699C6.33295 6.4699 5.62068 5.75763 5.62068 4.87899C5.62068 4.00036 6.33295 3.28809 7.21159 3.28809C8.09022 3.28809 8.8025 4.00036 8.8025 4.87899C8.8025 5.75763 8.09022 6.4699 7.21159 6.4699Z" fill="#30455A"/>
<path d="M2.96916 6.4699C2.09053 6.4699 1.37825 5.75763 1.37825 4.87899C1.37825 4.00036 2.09053 3.28809 2.96916 3.28809C3.8478 3.28809 4.56007 4.00036 4.56007 4.87899C4.56007 5.75763 3.8478 6.4699 2.96916 6.4699Z" fill="#30455A"/>
<path d="M11.454 10.7123C10.5754 10.7123 9.8631 10.0001 9.8631 9.12142C9.8631 8.24278 10.5754 7.53051 11.454 7.53051C12.3326 7.53051 13.0449 8.24278 13.0449 9.12142C13.0449 10.0001 12.3326 10.7123 11.454 10.7123Z" fill="#30455A"/>
<path d="M7.21159 10.7123C6.33295 10.7123 5.62068 10.0001 5.62068 9.12142C5.62068 8.24278 6.33295 7.53051 7.21159 7.53051C8.09022 7.53051 8.8025 8.24278 8.8025 9.12142C8.8025 10.0001 8.09022 10.7123 7.21159 10.7123Z" fill="#30455A"/>
<path d="M2.96916 10.7123C2.09053 10.7123 1.37825 10.0001 1.37825 9.12142C1.37825 8.24278 2.09053 7.53051 2.96916 7.53051C3.8478 7.53051 4.56007 8.24278 4.56007 9.12142C4.56007 10.0001 3.8478 10.7123 2.96916 10.7123Z" fill="#30455A"/>
</svg>
