<svg width="12" height="12" viewBox="0 0 12 12" fill="none" xmlns="http://www.w3.org/2000/svg">
<path d="M2.77095 2.13227C2.59459 1.95591 2.30864 1.95591 2.13227 2.13227C1.95591 2.30864 1.95591 2.59459 2.13227 2.77095L5.36132 6L2.13227 9.22905C1.95591 9.40542 1.95591 9.69136 2.13227 9.86773C2.30864 10.0441 2.59459 10.0441 2.77095 9.86773L6 6.63868L9.22905 9.86773C9.40542 10.0441 9.69136 10.0441 9.86773 9.86773C10.0441 9.69136 10.0441 9.40542 9.86773 9.22905L6.63868 6L9.86773 2.77095C10.0441 2.59459 10.0441 2.30864 9.86773 2.13227C9.69136 1.95591 9.40542 1.95591 9.22905 2.13227L6 5.36132L2.77095 2.13227Z" fill="#0F92A3"/>
</svg>
