<svg width="12" height="12" viewBox="0 0 12 12" fill="none" xmlns="http://www.w3.org/2000/svg">
<path fill-rule="evenodd" clip-rule="evenodd" d="M2.82625 2.14337L1.80004 1.11716V4.19999H4.88287L3.67941 2.99652C4.32146 2.49835 5.12328 2.2 6.00002 2.2C8.10337 2.2 9.8 3.89663 9.8 5.99998C9.8 8.10333 8.10337 9.79996 6.00002 9.79996C3.89709 9.79996 2.20072 8.10401 2.20004 6.00125C2.20095 5.92227 2.18626 5.84389 2.15681 5.77059C2.12716 5.69681 2.08314 5.62966 2.02732 5.57304C1.97149 5.51642 1.90497 5.47146 1.83162 5.44078C1.75827 5.41009 1.67955 5.39429 1.60004 5.39429C1.52053 5.39429 1.44181 5.41009 1.36846 5.44078C1.2951 5.47146 1.22858 5.51642 1.17276 5.57304C1.11693 5.62966 1.07292 5.69681 1.04327 5.77059C1.01381 5.8439 0.999125 5.92229 1.00004 6.00128C1.00075 8.75732 3.24382 11 6.00002 11C8.75665 11 11 8.75661 11 5.99998C11 3.24335 8.75665 1 6.00002 1C4.79482 1 3.68972 1.43186 2.82625 2.14337Z" fill="#0F92A3"/>
</svg>
