<svg width="12" height="12" viewBox="0 0 12 12" fill="none" xmlns="http://www.w3.org/2000/svg">
<path fill-rule="evenodd" clip-rule="evenodd" d="M4.94231 1C4.65993 1 4.38049 1.09897 4.16733 1.28791C3.95253 1.4783 3.82051 1.74807 3.82051 2.04167V2.25H1.41667C1.18655 2.25 1 2.43654 1 2.66666C1 2.89678 1.18655 3.08333 1.41667 3.08333H2.29274V9.79167C2.29274 10.1019 2.40628 10.4055 2.61751 10.6342C2.82976 10.864 3.12505 11 3.44065 11H8.55936C8.87496 11 9.17025 10.864 9.3825 10.6342C9.59373 10.4055 9.70727 10.1019 9.70727 9.79167V3.08333H10.5833C10.8135 3.08333 11 2.89678 11 2.66666C11 2.43654 10.8135 2.25 10.5833 2.25H8.17948V2.04167C8.17948 1.74807 8.04747 1.4783 7.83267 1.28791C7.6195 1.09897 7.34007 1 7.05769 1H4.94231ZM4.65384 2.25H7.34615V2.04167C7.34615 2.00375 7.32959 1.95557 7.27991 1.91154C7.2286 1.86606 7.14933 1.83333 7.05769 1.83333H4.94231C4.85066 1.83333 4.77139 1.86606 4.72008 1.91154C4.67041 1.95557 4.65384 2.00375 4.65384 2.04167V2.25ZM5.47652 4.33333C5.47652 4.10321 5.28997 3.91666 5.05985 3.91666C4.82974 3.91666 4.64319 4.10321 4.64319 4.33333V8.91666C4.64319 9.14678 4.82974 9.33333 5.05986 9.33333C5.28997 9.33333 5.47652 9.14678 5.47652 8.91666L5.47652 4.33333ZM7.35685 4.33333C7.35685 4.10321 7.1703 3.91666 6.94019 3.91666C6.71007 3.91666 6.52352 4.10321 6.52352 4.33333L6.52352 8.91666C6.52352 9.14678 6.71007 9.33333 6.94019 9.33333C7.1703 9.33333 7.35685 9.14678 7.35685 8.91666L7.35685 4.33333Z" fill="#0F92A3" fill-opacity="0.4"/>
</svg>
