<svg width="12" height="12" viewBox="0 0 12 12" fill="none" xmlns="http://www.w3.org/2000/svg">
<path fill-rule="evenodd" clip-rule="evenodd" d="M1.41667 2.66667C1.16563 2.66667 1 2.86242 1 3.08333V10.5833C1 10.8042 1.16563 11 1.41667 11H8.91667C9.125 11 9.33333 10.7917 9.33333 10.5833V3.08333C9.33333 2.86242 9.1677 2.66667 8.91667 2.66667H1.41667Z" fill="#0F92A3" fill-opacity="0.4"/>
<path fill-rule="evenodd" clip-rule="evenodd" d="M3.91667 1.41667C3.91667 1.19575 4.08229 1 4.33333 1H10.5833C10.7917 1 11 1.20833 11 1.41667V9.75C11 9.98012 10.8135 10.1667 10.5833 10.1667C10.3532 10.1667 10.1667 9.98015 10.1667 9.75003C10.1667 9.61682 10.1667 9.47421 10.1667 9.33333V1.83333H4.33333C4.08229 1.83333 3.91667 1.63758 3.91667 1.41667Z" fill="#0F92A3" fill-opacity="0.4"/>
</svg>
