<svg width="12" height="12" viewBox="0 0 12 12" fill="none" xmlns="http://www.w3.org/2000/svg">
<path d="M7.74451 2.45719C7.70471 2.41945 7.65198 2.39842 7.59716 2.39842C7.54235 2.39842 7.48961 2.41945 7.44982 2.45719L2.69267 7.21869C2.6536 7.25781 2.63165 7.31085 2.63165 7.36617C2.63165 7.42148 2.6536 7.47453 2.69267 7.51365L4.47666 9.29926C4.51574 9.33837 4.56874 9.36034 4.624 9.36034C4.67926 9.36034 4.73226 9.33837 4.77135 9.29926L9.52849 4.5386C9.56756 4.49948 9.58951 4.44643 9.58951 4.39112C9.58951 4.3358 9.56756 4.28276 9.52849 4.24364L7.74451 2.45719Z" fill="#0F92A3" fill-opacity="0.41"/>
<path d="M2.24793 7.9638C2.22268 7.93868 2.19142 7.92045 2.15713 7.91085C2.12285 7.90126 2.08667 7.90061 2.05207 7.90898C2.01746 7.91734 1.98557 7.93444 1.95944 7.95865C1.93331 7.98285 1.91381 8.01336 1.9028 8.04724L1.01081 10.7257C0.998504 10.7624 0.996664 10.8019 1.0055 10.8396C1.01433 10.8773 1.03349 10.9118 1.06083 10.9393C1.08841 10.9664 1.12288 10.9854 1.1605 10.9943C1.19812 11.0032 1.23745 11.0016 1.27424 10.9898L3.95021 10.0974C3.98415 10.0864 4.0147 10.0669 4.03895 10.0407C4.06319 10.0145 4.08032 9.98251 4.08868 9.94781C4.09705 9.9131 4.09637 9.87683 4.08673 9.84246C4.07708 9.80809 4.05878 9.77677 4.03358 9.7515L2.24793 7.9638Z" fill="#0F92A3" fill-opacity="0.41"/>
<path d="M10.571 1.41672C10.2908 1.14924 9.91856 1 9.53141 1C9.14426 1 8.77198 1.14924 8.49186 1.41672L8.19509 1.71419C8.15602 1.75331 8.13407 1.80635 8.13407 1.86167C8.13407 1.91698 8.15602 1.97003 8.19509 2.00915L9.97866 3.79476C10.0177 3.83387 10.0707 3.85584 10.126 3.85584C10.1813 3.85584 10.2343 3.83387 10.2733 3.79476L10.571 3.49563C10.8457 3.2196 11 2.84583 11 2.45618C11 2.06652 10.8457 1.69275 10.571 1.41672Z" fill="#0F92A3" fill-opacity="0.41"/>
</svg>
