<svg width="12" height="12" viewBox="0 0 12 12" fill="none" xmlns="http://www.w3.org/2000/svg">
<path fill-rule="evenodd" clip-rule="evenodd" d="M6.45001 1.875C6.45001 1.66789 6.6179 1.5 6.82501 1.5H10.125C10.3321 1.5 10.4999 1.66789 10.5 1.87499L10.5 5.17811C10.5 5.38521 10.3321 5.55311 10.125 5.55311C9.9179 5.55311 9.75 5.38522 9.75 5.17812L9.74996 2.78092L5.17499 7.36153C5.02861 7.50804 4.79118 7.50816 4.64466 7.36178C4.49815 7.2154 4.49803 6.97796 4.64441 6.83145L9.22023 2.25H6.82501C6.6179 2.25 6.45001 2.08211 6.45001 1.875ZM1.7708 3.41498C1.94424 3.24137 2.17956 3.14378 2.425 3.14378H5.17499C5.3821 3.14378 5.54999 3.31167 5.54999 3.51878C5.54999 3.72588 5.3821 3.89378 5.17499 3.89378H2.425C2.3787 3.89378 2.33423 3.91218 2.30138 3.94506C2.26852 3.97795 2.25 4.02263 2.25 4.0693V9.57448C2.25 9.62115 2.26852 9.66583 2.30138 9.69872C2.33423 9.73159 2.3787 9.75 2.425 9.75H7.92499C7.97128 9.75 8.01576 9.73159 8.0486 9.69872C8.08146 9.66583 8.09999 9.62115 8.09999 9.57448V6.8384C8.09999 6.6313 8.26788 6.4634 8.47498 6.4634C8.68209 6.4634 8.84999 6.6313 8.84999 6.8384V9.57448C8.84999 9.81983 8.75262 10.0552 8.57918 10.2288C8.40574 10.4024 8.17043 10.5 7.92499 10.5H2.425C2.17956 10.5 1.94424 10.4024 1.7708 10.2288C1.59737 10.0552 1.5 9.81983 1.5 9.57448V4.0693C1.5 3.82395 1.59737 3.58858 1.7708 3.41498Z" fill="#0F92A3" fill-opacity="0.4"/>
</svg>
