<svg width="12" height="12" viewBox="0 0 12 12" fill="none" xmlns="http://www.w3.org/2000/svg">
<path fill-rule="evenodd" clip-rule="evenodd" d="M2.41837 6.44424V9.85378C2.41837 9.91158 2.44105 9.96693 2.48129 10.0077C2.5215 10.0484 2.57596 10.0712 2.63265 10.0712H9.36735C9.42404 10.0712 9.4785 10.0484 9.51871 10.0077C9.55895 9.96693 9.58163 9.91158 9.58163 9.85378V6.46469C9.58163 6.20816 9.78721 6.0002 10.0408 6.0002C10.2944 6.0002 10.5 6.20816 10.5 6.46469V9.85378C10.5 10.1577 10.3808 10.4492 10.1684 10.6643C9.95603 10.8793 9.66788 11.0002 9.36735 11.0002H2.63265C2.33212 11.0002 2.04397 10.8793 1.83159 10.6643C1.61923 10.4492 1.5 10.1577 1.5 9.85378V6.44424C1.5 6.0002 1.95593 6.00019 1.95593 6.00019C1.95593 6.00019 2.41837 6.0002 2.41837 6.44424Z" fill="#0F92A3"/>
<path d="M8.69201 4.78786C8.8455 4.94135 8.84534 5.19037 8.69165 5.34406L6.24279 7.79293C6.0891 7.94662 5.84008 7.94678 5.68658 7.79329L3.23852 5.34529C3.08502 5.1918 3.08518 4.94278 3.23887 4.78909C3.39256 4.63539 3.64158 4.63523 3.79508 4.78872L5.57173 6.56532L5.57081 1.55683C5.57084 1.33961 5.74696 1.16333 5.96417 1.16309C6.18139 1.16284 6.35744 1.33873 6.3574 1.55594L6.35833 6.56569L8.1358 4.78822C8.28949 4.63453 8.53851 4.63436 8.69201 4.78786Z" fill="#0F92A3"/>
</svg>
