<svg width="12" height="12" viewBox="0 0 12 12" fill="none" xmlns="http://www.w3.org/2000/svg">
<path fill-rule="evenodd" clip-rule="evenodd" d="M2.32645 1C1.87001 1 1.5 1.3731 1.5 1.83333V10.1667C1.5 10.6269 1.87001 11 2.32645 11H4.39256C4.849 11 5.21901 10.6269 5.21901 10.1667V1.83333C5.21901 1.3731 4.849 1 4.39256 1H2.32645Z" fill="#0F92A3"/>
<path fill-rule="evenodd" clip-rule="evenodd" d="M7.69835 1C7.24191 1 6.8719 1.3731 6.8719 1.83333V10.1667C6.8719 10.6269 7.24191 11 7.69835 11H9.76446C10.2209 11 10.5909 10.6269 10.5909 10.1667V1.83333C10.5909 1.3731 10.2209 1 9.76446 1H7.69835Z" fill="#0F92A3"/>
</svg>
