<svg width="12" height="12" viewBox="0 0 12 12" fill="none" xmlns="http://www.w3.org/2000/svg">
<path fill-rule="evenodd" clip-rule="evenodd" d="M7.5 1.50783C7.46439 1.50264 7.42826 1.5 7.39188 1.5H7.5V1.50783Z" fill="white"/>
<path d="M3.75 10.5H8.25V9.75V7.125H3.75V10.5Z" fill="white"/>
<path d="M6.75 1.5H4.125V2.25V3.75H6.75V1.5Z" fill="white"/>
<path d="M9 10.5H9.75C10.1642 10.5 10.5 10.1642 10.5 9.75V4.45091C10.5 4.24303 10.4137 4.04447 10.2617 3.90262L7.90362 1.70171C7.79134 1.59692 7.65029 1.52973 7.5 1.50783V2.35091V3.75C7.5 4.16421 7.16421 4.5 6.75 4.5H4.125C3.71079 4.5 3.375 4.16421 3.375 3.75V2.25V1.5H2.25C1.83579 1.5 1.5 1.83579 1.5 2.25V9.75C1.5 10.1642 1.83579 10.5 2.25 10.5H3V9.75V7.125C3 6.71079 3.33579 6.375 3.75 6.375H8.25C8.66421 6.375 9 6.71079 9 7.125V10.5Z" fill="white"/>
</svg>
