<svg width="24" height="24" viewBox="0 0 24 24" fill="none" xmlns="http://www.w3.org/2000/svg">
<path fill-rule="evenodd" clip-rule="evenodd" d="M11.0462 8.76946C11.0462 8.2425 11.4737 7.81498 12.0006 7.81498C12.5276 7.81498 12.9551 8.2425 12.9551 8.76946V11.6044L16.713 15.3631C16.8929 15.543 16.9929 15.7834 16.9929 16.0377C16.9929 16.2915 16.8934 16.5333 16.7122 16.7132C16.5337 16.8904 16.2934 16.9931 16.0375 16.9931C15.784 16.9931 15.5424 16.8938 15.3626 16.7129L11.3251 12.6746C11.2363 12.5858 11.1658 12.4807 11.1173 12.3622L11.1139 12.3538L11.1081 12.3374L11.1066 12.3333L11.1063 12.3323C11.0658 12.2234 11.0462 12.1122 11.0462 12V8.76946Z" fill="#0F92A3"/>
<path fill-rule="evenodd" clip-rule="evenodd" d="M12 2C6.48594 2 2 6.48594 2 12C2 17.5141 6.48594 22 12 22C17.5141 22 22 17.5141 22 12C22 6.48594 17.5141 2 12 2ZM12 3.90896C7.539 3.90896 3.90896 7.539 3.90896 12C3.90896 16.461 7.539 20.091 12 20.091C16.461 20.091 20.091 16.461 20.091 12C20.091 7.539 16.461 3.90896 12 3.90896ZM12.0006 7.81498C11.4737 7.81498 11.0462 8.2425 11.0462 8.76946V12C11.0462 12.1122 11.0658 12.2234 11.1063 12.3323L11.1066 12.3333L11.1081 12.3374L11.1139 12.3538L11.1173 12.3622C11.1658 12.4807 11.2363 12.5858 11.3251 12.6746L15.3626 16.7129C15.5424 16.8938 15.784 16.9931 16.0375 16.9931C16.2934 16.9931 16.5337 16.8904 16.7122 16.7132C16.8934 16.5333 16.9929 16.2915 16.9929 16.0377C16.9929 15.7834 16.8929 15.543 16.713 15.3631L12.9551 11.6044V8.76946C12.9551 8.2425 12.5276 7.81498 12.0006 7.81498Z" fill="#0F92A3"/>
</svg>
