<svg width="14" height="14" viewBox="0 0 14 14" fill="none" xmlns="http://www.w3.org/2000/svg">
<path d="M12.5592 6.41892C11.273 4.98531 9.13964 3.46992 6.99999 3.50047C4.86033 3.46943 2.727 4.9858 1.44078 6.41892C1.26447 6.61862 1.16699 6.87715 1.16699 7.14508C1.16699 7.41301 1.26447 7.67154 1.44078 7.87125C2.71193 9.28958 4.81511 10.7917 6.92169 10.7917H7.07147C9.18535 10.7917 11.288 9.28958 12.5607 7.87075C12.7367 7.67095 12.8339 7.4124 12.8337 7.14455C12.8334 6.87671 12.7357 6.61836 12.5592 6.41892ZM4.76308 7.14607C4.76308 6.69786 4.89427 6.25972 5.14006 5.88704C5.38586 5.51437 5.73522 5.22391 6.14396 5.05239C6.5527 4.88087 7.00247 4.83599 7.43639 4.92343C7.8703 5.01087 8.26888 5.2267 8.58172 5.54363C8.89456 5.86057 9.1076 6.26436 9.19391 6.70396C9.28023 7.14355 9.23593 7.59921 9.06662 8.0133C8.89731 8.42739 8.6106 8.78132 8.24275 9.03033C7.87489 9.27934 7.44241 9.41225 6.99999 9.41225C6.40672 9.41225 5.83775 9.17349 5.41825 8.7485C4.99875 8.32351 4.76308 7.7471 4.76308 7.14607Z" fill="#30455A"/>
<path d="M6.99999 8.13134C7.53712 8.13134 7.97256 7.69021 7.97256 7.14605C7.97256 6.60188 7.53712 6.16075 6.99999 6.16075C6.46285 6.16075 6.02742 6.60188 6.02742 7.14605C6.02742 7.69021 6.46285 8.13134 6.99999 8.13134Z" fill="#30455A"/>
</svg>
