<svg width="14" height="14" viewBox="0 0 14 14" fill="none" xmlns="http://www.w3.org/2000/svg">
<path d="M12.6861 7.68834C12.5339 7.60565 12.3995 7.53038 12.2628 7.46041C11.5291 7.08511 10.7432 7.01302 9.92151 7.14236C9.26639 7.26139 8.62452 7.4324 8.00356 7.65336C7.3246 7.87705 6.64684 8.10922 5.9334 8.23432C5.28327 8.3646 4.60535 8.33157 3.97502 8.13891C3.66629 8.04116 3.37661 7.90093 3.11651 7.72333C3.09084 7.69867 3.07316 7.66826 3.06538 7.63533C3.06154 7.61249 3.06154 7.58927 3.06538 7.56642C3.06538 5.88078 3.06538 4.19514 3.06538 2.50949C3.06538 2.47133 3.06538 2.4321 3.06538 2.37379C3.21164 2.45436 3.33054 2.52752 3.4661 2.59961C4.12811 2.93605 4.89979 3.05921 5.65159 2.9484C6.28161 2.85274 6.89857 2.69816 7.49226 2.48723C8.28299 2.23173 9.06182 1.94549 9.89298 1.81297C10.5886 1.70696 11.2806 1.7165 11.937 1.98472C12.1748 2.08331 12.4031 2.21477 12.6326 2.33563C12.6578 2.35656 12.6759 2.38337 12.6849 2.41302C12.6884 2.42948 12.6884 2.44638 12.6849 2.46285C12.6849 4.16828 12.6849 5.87371 12.6849 7.57915V7.68516L12.6861 7.68834Z" fill="#30455A"/>
<path d="M2.1875 1.79935V12.25C2.1875 12.4916 1.99162 12.6875 1.75 12.6875C1.50838 12.6875 1.3125 12.4916 1.3125 12.25V1.79935C1.3125 1.73542 1.32382 1.67211 1.3458 1.61304C1.36779 1.55397 1.40002 1.5003 1.44064 1.4551C1.48127 1.40989 1.5295 1.37403 1.58258 1.34956C1.63566 1.32509 1.69255 1.3125 1.75 1.3125C1.80745 1.3125 1.86434 1.32509 1.91742 1.34956C1.9705 1.37403 2.01873 1.40989 2.05936 1.4551C2.09998 1.5003 2.13221 1.55397 2.1542 1.61304C2.17618 1.67211 2.1875 1.73542 2.1875 1.79935Z" fill="#30455A"/>
</svg>
