<svg width="14" height="14" viewBox="0 0 14 14" fill="none" xmlns="http://www.w3.org/2000/svg">
<path d="M5.29894 3.11232H12.3475C12.4765 3.11232 12.6001 3.05379 12.6913 2.9496C12.7824 2.84541 12.8337 2.70411 12.8337 2.55676C12.8337 2.40942 12.7824 2.26811 12.6913 2.16393C12.6001 2.05974 12.4765 2.00121 12.3475 2.00121H5.29894C5.17002 2.00121 5.04637 2.05974 4.95521 2.16393C4.86405 2.26811 4.81283 2.40942 4.81283 2.55676C4.81283 2.70411 4.86405 2.84541 4.95521 2.9496C5.04637 3.05379 5.17002 3.11232 5.29894 3.11232Z" fill="#30455A"/>
<path d="M12.3475 6.44565H5.29894C5.17002 6.44565 5.04637 6.50418 4.95521 6.60837C4.86405 6.71256 4.81283 6.85386 4.81283 7.00121C4.81283 7.14855 4.86405 7.28986 4.95521 7.39404C5.04637 7.49823 5.17002 7.55676 5.29894 7.55676H12.3475C12.4765 7.55676 12.6001 7.49823 12.6913 7.39404C12.7824 7.28986 12.8337 7.14855 12.8337 7.00121C12.8337 6.85386 12.7824 6.71256 12.6913 6.60837C12.6001 6.50418 12.4765 6.44565 12.3475 6.44565Z" fill="#30455A"/>
<path d="M12.3475 10.8901H5.29894C5.17002 10.8901 5.04637 10.9486 4.95521 11.0528C4.86405 11.157 4.81283 11.2983 4.81283 11.4456C4.81283 11.593 4.86405 11.7343 4.95521 11.8385C5.04637 11.9427 5.17002 12.0012 5.29894 12.0012H12.3475C12.4765 12.0012 12.6001 11.9427 12.6913 11.8385C12.7824 11.7343 12.8337 11.593 12.8337 11.4456C12.8337 11.2983 12.7824 11.157 12.6913 11.0528C12.6001 10.9486 12.4765 10.8901 12.3475 10.8901Z" fill="#30455A"/>
<path d="M4.08366 2.62508C4.08366 3.4305 3.43074 4.08341 2.62533 4.08341C1.81991 4.08341 1.16699 3.4305 1.16699 2.62508C1.16699 1.81967 1.81991 1.16675 2.62533 1.16675C3.43074 1.16675 4.08366 1.81967 4.08366 2.62508Z" fill="#30455A"/>
<path d="M4.08366 7.00008C4.08366 7.8055 3.43074 8.45842 2.62533 8.45842C1.81991 8.45842 1.16699 7.8055 1.16699 7.00008C1.16699 6.19467 1.81991 5.54175 2.62533 5.54175C3.43074 5.54175 4.08366 6.19467 4.08366 7.00008Z" fill="#30455A"/>
<path d="M4.08366 11.3751C4.08366 12.1805 3.43074 12.8334 2.62533 12.8334C1.81991 12.8334 1.16699 12.1805 1.16699 11.3751C1.16699 10.5697 1.81991 9.91675 2.62533 9.91675C3.43074 9.91675 4.08366 10.5697 4.08366 11.3751Z" fill="#30455A"/>
</svg>
