<svg width="175" height="24" viewBox="0 0 175 24" fill="none" xmlns="http://www.w3.org/2000/svg">
<path d="M32.5732 18.187V6.02441H45.9106V8.2358H35.2968V10.9228H44.9269V13.1342H35.2968V15.9756H45.9106V18.187H32.5732Z" fill="#181A1C"/>
<path d="M54.0406 18.2723C51.7967 18.2723 50.0772 17.7519 48.8861 16.7154C47.6951 15.6788 47.1016 14.1381 47.1016 12.0975C47.1016 10.0568 47.6991 8.53243 48.8861 7.48771C50.0772 6.443 51.7967 5.92674 54.0406 5.93893L60.1625 5.97145V8.15031H54.2235C52.7479 8.15031 51.6544 8.46332 50.939 9.08527C50.2235 9.70722 49.8658 10.7113 49.8658 12.0975C49.8658 13.4836 50.2235 14.4877 50.939 15.1178C51.6544 15.7479 52.7479 16.0609 54.2235 16.0609H60.3292V18.2723H54.0365H54.0406Z" fill="#181A1C"/>
<path d="M67.2929 18.187V13.8496L60.8457 6.02441H64.2156L68.6546 11.5366L73.0774 6.02441H76.4473L70.0327 13.8334V18.187H67.2929Z" fill="#181A1C"/>
<path d="M77.2437 18.2723V16.0609L87.0242 16.0772C87.5242 16.0772 87.9063 15.9593 88.1746 15.7276C88.4388 15.4959 88.573 15.1178 88.573 14.5975C88.573 14.0772 88.4388 13.6991 88.1746 13.4674C87.9063 13.2357 87.5242 13.1178 87.0242 13.1178H80.9348C79.6746 13.1178 78.699 12.8129 77.9998 12.2073C77.3006 11.6016 76.9551 10.7073 76.9551 9.5284C76.9551 8.34953 77.3047 7.45523 77.9998 6.84953C78.699 6.24384 79.6746 5.93896 80.9348 5.93896H90.4957V8.15035L81.2234 8.13409C80.7356 8.13409 80.3575 8.24384 80.0852 8.46742C79.8128 8.691 79.6787 9.04466 79.6787 9.53246C79.6787 10.0203 79.8169 10.3739 80.0852 10.5975C80.3535 10.8211 80.7356 10.9308 81.2234 10.9308H87.3128C88.573 10.9308 89.5486 11.2398 90.2478 11.8577C90.9469 12.4755 91.2925 13.3902 91.2925 14.6056C91.2925 15.8211 90.9429 16.7195 90.2478 17.3455C89.5526 17.9715 88.573 18.2804 87.3128 18.2804H77.2437V18.2723Z" fill="#181A1C"/>
<path d="M91.9795 18.187L97.4592 6.02441H101.662L107.142 18.187H104.183L103.024 15.6179H96.1014L94.9429 18.187H91.9836H91.9795ZM97.0811 13.4065H102.032L99.6665 8.15043H99.447L97.0811 13.4065Z" fill="#181A1C"/>
<path d="M108.496 18.187V6.02441H118.687C119.947 6.02441 120.923 6.34149 121.622 6.97563C122.321 7.60978 122.667 8.57319 122.667 9.86588C122.667 11.1586 122.317 12.122 121.622 12.7602C120.927 13.3984 119.947 13.7114 118.687 13.7114H111.22V18.187H108.496ZM118.366 8.2358H111.22V11.4838L118.366 11.5C118.866 11.5 119.248 11.374 119.516 11.126C119.781 10.8781 119.915 10.4553 119.915 9.86588C119.915 9.27645 119.781 8.84149 119.516 8.59758C119.248 8.35368 118.866 8.23173 118.366 8.23173V8.2358Z" fill="#181A1C"/>
<path d="M130.325 18.187V6.02441H143.663V8.2358H133.049V10.9228H142.679V13.1342H133.049V15.9756H143.663V18.187H130.325Z" fill="#181A1C"/>
<path d="M150.789 18.187V13.8496L144.342 6.02441H147.712L152.151 11.5366L156.574 6.02441H159.943L153.529 13.8334V18.187H150.789Z" fill="#181A1C"/>
<path d="M161.13 18.187V6.02441H174.467V8.2358H163.853V10.9228H173.484V13.1342H163.853V15.9756H174.467V18.187H161.13Z" fill="#181A1C"/>
<path d="M16.6423 12C16.6423 14.5976 14.5244 16.7114 11.9309 16.7114C9.33745 16.7114 7.22363 14.5976 7.22363 12C7.22363 9.40248 9.33339 7.29272 11.9309 7.29272C14.5285 7.29272 16.6423 9.40248 16.6423 12Z" fill="#1CBDD2"/>
<path d="M11.9269 14.5569C13.3368 14.5569 14.4797 13.4139 14.4797 12.004C14.4797 10.5941 13.3368 9.45117 11.9269 9.45117C10.517 9.45117 9.37402 10.5941 9.37402 12.004C9.37402 13.4139 10.517 14.5569 11.9269 14.5569Z" fill="#181A1C"/>
<path d="M22.2805 10.9106C21.7886 6.08537 17.9106 2.21138 13.0772 1.70732V0H10.9024V1.70732C6.08537 2.20325 2.19512 6.08537 1.70732 10.9106H0V13.0854H1.70732C2.20732 17.8943 6.07724 21.7764 10.9024 22.2724V24H13.0772V22.2724C17.9024 21.7724 21.7805 17.8943 22.2805 13.0854H23.8659V10.9106H22.2805ZM20.378 13.0854C19.8943 16.8984 16.8984 19.8943 13.0772 20.378V19.0569H10.9024V20.378C7.0813 19.8862 4.08537 16.8984 3.60163 13.0854H4.93902V10.9106H3.60163C4.08537 7.07724 7.0813 4.07724 10.9024 3.60163V4.93902H13.0772V3.60163C16.9065 4.07724 19.8943 7.07317 20.378 10.9106H18.9268V13.0854H20.378Z" fill="#181A1C"/>
</svg>
