<svg width="12" height="12" viewBox="0 0 12 12" fill="none" xmlns="http://www.w3.org/2000/svg">
<path fill-rule="evenodd" clip-rule="evenodd" d="M1 4.60507C1 2.61405 2.61405 1 4.60507 1C6.5961 1 8.21014 2.61405 8.21014 4.60507C8.21014 5.45045 7.91916 6.22787 7.43189 6.84263L10.878 10.2887C11.0407 10.4514 11.0407 10.7152 10.878 10.878C10.7152 11.0407 10.4514 11.0407 10.2887 10.878L6.84263 7.43189C6.22787 7.91916 5.45045 8.21014 4.60507 8.21014C2.61405 8.21014 1 6.5961 1 4.60507ZM6.57826 6.55162C6.57365 6.55584 6.56911 6.56018 6.56465 6.56465C6.56018 6.56911 6.55584 6.57365 6.55162 6.57826C6.05113 7.07204 5.36369 7.37681 4.60507 7.37681C3.07428 7.37681 1.83333 6.13586 1.83333 4.60507C1.83333 3.07428 3.07428 1.83333 4.60507 1.83333C6.13586 1.83333 7.37681 3.07428 7.37681 4.60507C7.37681 5.36369 7.07204 6.05113 6.57826 6.55162Z" fill="#181A1C"/>
</svg>
