<svg width="14" height="14" viewBox="0 0 14 14" fill="none" xmlns="http://www.w3.org/2000/svg">
<path d="M13.8483 10.81C13.9417 10.8915 13.9942 11.0079 14 11.1301C14 11.2582 13.9592 11.3746 13.8717 11.4678L11.6317 13.8486C11.5442 13.9476 11.4158 14 11.2933 14C11.1708 14 11.0658 13.9593 10.9725 13.8719L8.715 11.7647H2.29833C2.04167 11.7647 1.83167 11.5551 1.83167 11.299V9.40125H1.49917C0.670833 9.40125 0 8.73181 0 7.9052V5.89688C0 5.07027 0.670833 4.39501 1.49917 4.39501H1.83167V2.50312C1.83167 2.24699 2.04167 2.03742 2.29833 2.03742H9.03C9.24583 0.879002 10.2725 0 11.4917 0C12.8742 0 14 1.12349 14 2.50312C14 3.88274 12.8742 5.00624 11.4917 5.00624C10.2725 5.00624 9.24583 4.12723 9.03 2.96882H2.765V4.39501H4.36917C5.1975 4.39501 5.86833 5.07027 5.86833 5.89688V7.9052C5.86833 8.73181 5.1975 9.40125 4.36917 9.40125H2.765V10.8333H8.6975L10.7975 8.5921C10.9783 8.40582 11.27 8.4 11.4625 8.57464L13.8483 10.81Z" fill="#1CBDD2"/>
</svg>
