<svg width="14" height="14" viewBox="0 0 14 14" fill="none" xmlns="http://www.w3.org/2000/svg">
<path d="M1.30373 1.3112C1.2162 1.40364 1.16702 1.52902 1.16699 1.65977V7.09039C1.16699 7.22115 1.21616 7.34655 1.30368 7.43901C1.39119 7.53147 1.50989 7.58342 1.63366 7.58342H5.36699C5.49076 7.58342 5.60946 7.53147 5.69698 7.43901C5.78449 7.34655 5.83366 7.22115 5.83366 7.09039V1.66716C5.83366 1.53641 5.78449 1.41101 5.69698 1.31855C5.60946 1.22609 5.49076 1.17414 5.36699 1.17414L1.63366 1.16675C1.5099 1.16678 1.39122 1.21874 1.30373 1.3112Z" fill="#30455A"/>
<path d="M12.3087 1.16675L8.10866 1.1749C7.96942 1.1749 7.83589 1.23623 7.73743 1.34541C7.63897 1.45459 7.58366 1.60267 7.58366 1.75707V4.66791C7.58366 4.82231 7.63897 4.97039 7.73743 5.07957C7.83589 5.18875 7.96942 5.25008 8.10866 5.25008H12.3087C12.4479 5.25008 12.5814 5.18875 12.6799 5.07957C12.7783 4.97039 12.8337 4.82231 12.8337 4.66791V1.74892C12.8337 1.59452 12.7783 1.44644 12.6799 1.33726C12.5814 1.22808 12.4479 1.16675 12.3087 1.16675Z" fill="#30455A"/>
<path d="M5.69693 12.6874C5.78445 12.5936 5.83363 12.4665 5.83366 12.3338V9.83349C5.83366 9.70086 5.78449 9.57366 5.69698 9.47988C5.60946 9.3861 5.49076 9.33342 5.36699 9.33342H1.63366C1.50989 9.33342 1.39119 9.3861 1.30368 9.47988C1.21616 9.57366 1.16699 9.70086 1.16699 9.83349V12.3263C1.16699 12.459 1.21616 12.5862 1.30368 12.6799C1.39119 12.7737 1.50989 12.8264 1.63366 12.8264L5.36699 12.8334C5.49068 12.8335 5.60935 12.781 5.69693 12.6874Z" fill="#30455A"/>
<path d="M12.3087 6.41675H8.10866C7.96942 6.41675 7.83589 6.46875 7.73743 6.56132C7.63897 6.65388 7.58366 6.77943 7.58366 6.91034V12.3398C7.58366 12.4707 7.63897 12.5963 7.73743 12.6888C7.83589 12.7814 7.96942 12.8334 8.10866 12.8334L12.3087 12.8265C12.4479 12.8265 12.5814 12.7745 12.6799 12.6819C12.7783 12.5894 12.8337 12.4638 12.8337 12.3329V6.91034C12.8337 6.77943 12.7783 6.65388 12.6799 6.56132C12.5814 6.46875 12.4479 6.41675 12.3087 6.41675Z" fill="#30455A"/>
</svg>
