<svg width="24" height="24" viewBox="0 0 24 24" fill="none" xmlns="http://www.w3.org/2000/svg">
<path d="M9.26364 21.9998L8.86563 18.7998C8.65004 18.7164 8.44689 18.6164 8.25618 18.4998C8.06547 18.3831 7.8789 18.2581 7.69648 18.1248L4.7363 19.3748L2 14.6248L4.56217 12.6748C4.54559 12.5581 4.5373 12.4456 4.5373 12.3373V11.6623C4.5373 11.5539 4.54559 11.4414 4.56217 11.3248L2 9.37476L4.7363 4.62476L7.69648 5.87476C7.8789 5.74142 8.06961 5.61642 8.26862 5.49976C8.46762 5.38309 8.66663 5.28309 8.86563 5.19976L9.26364 1.99976H14.7362L15.1342 5.19976C15.3498 5.28309 15.553 5.38309 15.7437 5.49976C15.9344 5.61642 16.121 5.74142 16.3034 5.87476L19.2636 4.62476L21.9999 9.37476L19.4377 11.3248C19.4543 11.4414 19.4626 11.5539 19.4626 11.6623V12.3373C19.4626 12.4456 19.446 12.5581 19.4128 12.6748L21.975 14.6248L19.2387 19.3748L16.3034 18.1248C16.121 18.2581 15.9303 18.3831 15.7313 18.4998C15.5323 18.6164 15.3333 18.7164 15.1342 18.7998L14.7362 21.9998H9.26364ZM11.0049 19.9998H12.9701L13.3183 17.3498C13.8324 17.2164 14.3092 17.0206 14.7487 16.7623C15.1881 16.5039 15.5903 16.1914 15.9551 15.8248L18.4178 16.8498L19.388 15.1498L17.2487 13.5248C17.3316 13.2914 17.3896 13.0456 17.4228 12.7873C17.456 12.5289 17.4725 12.2664 17.4725 11.9998C17.4725 11.7331 17.456 11.4706 17.4228 11.2123C17.3896 10.9539 17.3316 10.7081 17.2487 10.4748L19.388 8.84976L18.4178 7.14976L15.9551 8.19976C15.5903 7.81642 15.1881 7.49559 14.7487 7.23726C14.3092 6.97892 13.8324 6.78309 13.3183 6.64976L12.995 3.99976H11.0298L10.6815 6.64976C10.1674 6.78309 9.69066 6.97892 9.2512 7.23726C8.81173 7.49559 8.40958 7.80809 8.04474 8.17476L5.58207 7.14976L4.61192 8.84976L6.75121 10.4498C6.6683 10.6998 6.61025 10.9498 6.57709 11.1998C6.54392 11.4498 6.52734 11.7164 6.52734 11.9998C6.52734 12.2664 6.54392 12.5248 6.57709 12.7748C6.61025 13.0248 6.6683 13.2748 6.75121 13.5248L4.61192 15.1498L5.58207 16.8498L8.04474 15.7998C8.40958 16.1831 8.81173 16.5039 9.2512 16.7623C9.69066 17.0206 10.1674 17.2164 10.6815 17.3498L11.0049 19.9998ZM12.0497 15.4998C13.0115 15.4998 13.8324 15.1581 14.5124 14.4748C15.1923 13.7914 15.5323 12.9664 15.5323 11.9998C15.5323 11.0331 15.1923 10.2081 14.5124 9.52476C13.8324 8.84142 13.0115 8.49976 12.0497 8.49976C11.0713 8.49976 10.2462 8.84142 9.57458 9.52476C8.90294 10.2081 8.56712 11.0331 8.56712 11.9998C8.56712 12.9664 8.90294 13.7914 9.57458 14.4748C10.2462 15.1581 11.0713 15.4998 12.0497 15.4998Z" fill="#0F92A3"/>
</svg>
