<svg width="14" height="14" viewBox="0 0 14 14" fill="none" xmlns="http://www.w3.org/2000/svg">
<g clip-path="url(#clip0_674_30184)">
<path d="M10.3401 7.56693C10.1007 8.98237 8.98237 10.1007 7.56693 10.3401V8.48456C7.56693 8.17134 7.31322 7.91763 7 7.91763C6.68678 7.91763 6.43307 8.17134 6.43307 8.48456V10.3401C5.01763 10.1007 3.89928 8.98237 3.65992 7.56693H5.51544C5.82866 7.56693 6.08237 7.31322 6.08237 7C6.08237 6.68678 5.82866 6.43307 5.51544 6.43307H3.65992C3.89928 5.01763 4.66667 4.08333 6.43307 3.65992V5.51544C6.43307 5.82866 6.68678 6.08237 7 6.08237C7.31322 6.08237 7.56693 5.82866 7.56693 5.51544V3.65992C8.98237 3.89928 10.1007 5.01763 10.3401 6.43307H8.48456C8.17134 6.43307 7.91763 6.68678 7.91763 7C7.91763 7.31322 8.17134 7.56693 8.48456 7.56693H10.3401Z" fill="#30455A"/>
<path fill-rule="evenodd" clip-rule="evenodd" d="M13.4331 6.43307H11.485C11.2283 4.39097 9.60903 2.77172 7.56693 2.51502V0.566928C7.56693 0.253711 7.31322 0 7 0C6.68678 0 6.43307 0.253711 6.43307 0.566928V2.51502C4.39097 2.77172 2.77172 4.39097 2.51502 6.43307H0.566928C0.253711 6.43307 0 6.68678 0 7C0 7.31322 0.253711 7.56693 0.566928 7.56693H2.51502C2.77172 9.60903 4.39097 11.2283 6.43307 11.485V13.4331C6.43307 13.7463 6.68678 14 7 14C7.31322 14 7.56693 13.7463 7.56693 13.4331V11.485C9.60903 11.2283 11.2283 9.60903 11.485 7.56693H13.4331C13.7463 7.56693 14 7.31322 14 7C14 6.68678 13.7463 6.43307 13.4331 6.43307ZM7.56693 10.3401C8.98237 10.1007 10.1007 8.98237 10.3401 7.56693C10.3401 7.56693 10.4008 7.29167 10.4008 7C10.4008 6.70833 10.3401 6.43307 10.3401 6.43307C10.1007 5.01763 8.98237 3.89928 7.56693 3.65992C7.56693 3.65992 7.29167 3.59917 7 3.59917C6.70833 3.59917 6.43307 3.65992 6.43307 3.65992C4.66667 4.08333 3.89928 5.01763 3.65992 6.43307C3.65992 6.43307 3.59917 6.70833 3.59917 7C3.59917 7.29167 3.65992 7.56693 3.65992 7.56693C3.89928 8.98237 5.01763 10.1007 6.43307 10.3401C6.43307 10.3401 6.70833 10.4008 7 10.4008C7.29167 10.4008 7.56693 10.3401 7.56693 10.3401Z" fill="#30455A"/>
</g>
<defs>
<clipPath id="clip0_674_30184">
<rect width="14" height="14" fill="white"/>
</clipPath>
</defs>
</svg>
