<svg width="24" height="24" viewBox="0 0 24 24" fill="none" xmlns="http://www.w3.org/2000/svg">
<path fill-rule="evenodd" clip-rule="evenodd" d="M12.021 3.9474C13.5164 2.23399 15.8899 1.57652 18.0545 2.27554C18.453 2.40362 18.7572 2.72897 18.8577 3.13589C18.9585 3.54388 18.8398 3.97472 18.5448 4.27367L18.5408 4.27773L15.4287 7.386L15.5767 8.4178L16.6104 8.56525L19.7281 5.45055C20.0273 5.15706 20.4572 5.0397 20.8639 5.14007C21.2704 5.24037 21.5962 5.54399 21.7245 5.94289C22.4237 8.10562 21.7654 10.4763 20.0515 11.9701C18.4837 13.3364 16.3086 13.7285 14.3808 13.0313C14.1451 13.2679 13.8104 13.6032 13.4096 14.0045C12.6005 14.8146 11.521 15.8942 10.4414 16.9735C9.36185 18.0528 8.28205 19.132 7.47215 19.9413L6.12261 21.2897C5.61749 21.7946 4.91517 22.0514 4.20355 21.9914C3.49191 21.9314 2.84271 21.561 2.42933 20.9786C2.42469 20.972 2.42015 20.9654 2.41571 20.9588C1.75043 19.9587 1.89661 18.6268 2.76138 17.7946L10.961 9.61756C10.261 7.6903 10.6529 5.51504 12.021 3.9474ZM5.56035 20.7277C4.99849 20.1653 4.99858 20.1652 4.99858 20.1652L6.34829 18.8166C7.15813 18.0073 8.23784 16.9283 9.31731 15.8491C10.3968 14.7698 11.4759 13.6906 12.2847 12.8809C12.6891 12.476 13.0257 12.1388 13.2608 11.9027C13.3785 11.7846 13.4703 11.6922 13.5323 11.6296L13.6008 11.5602L13.6049 11.556C13.8366 11.3011 14.2149 11.2196 14.5375 11.3748C16.014 12.085 17.7721 11.8475 19.0069 10.7714C20.0757 9.83995 20.5742 8.43537 20.362 7.06473L17.5963 9.82778C17.3286 10.0946 16.9512 10.22 16.5772 10.1666L15.0644 9.95077C14.5362 9.87514 14.1201 9.4603 14.0442 8.9314L13.8274 7.42015C13.7734 7.04526 13.8993 6.66689 14.1669 6.3991L16.9314 3.638C15.5582 3.42581 14.1513 3.9245 13.2189 4.99286C12.142 6.22679 11.9053 7.98306 12.6168 9.45746C12.764 9.76231 12.7019 10.1269 12.4622 10.3659L3.8786 18.9259L3.86637 18.9378C3.5559 19.2344 3.50069 19.7086 3.73285 20.068C3.87532 20.2627 4.09562 20.3867 4.33709 20.4071C4.58255 20.4277 4.82471 20.339 4.99858 20.1652L5.56035 20.7277ZM20.2109 6.42956L20.2115 6.43132L20.2109 6.42956ZM15.401 7.19301L15.4012 7.19426L15.401 7.19301Z" fill="#0F92A3"/>
</svg>
